<svg width="1920" height="4052" viewBox="0 0 1920 4052" fill="none" xmlns="http://www.w3.org/2000/svg">
<g clip-path="url(#clip0_6082_4666)">
<rect width="1920" height="4052" fill="#030012"/>
<mask id="path-1-inside-1_6082_4666" fill="white">
<path d="M0 3594H1920V4052H0V3594Z"/>
</mask>
<path d="M0 3594H1920V4052H0V3594Z" fill="url(#paint0_radial_6082_4666)"/>
<path d="M0 3595H1920V3593H0V3595Z" fill="#EEEBFF" fill-opacity="0.08" mask="url(#path-1-inside-1_6082_4666)"/>
<mask id="mask0_6082_4666" style="mask-type:alpha" maskUnits="userSpaceOnUse" x="0" y="3030" width="1920" height="600">
<rect y="3030" width="1920" height="600" fill="#D9D9D9"/>
</mask>
<g mask="url(#mask0_6082_4666)">
<path d="M-959.5 4470C-959.5 4072.55 -744.702 3712.68 -397.345 3452.17C-49.9878 3191.65 429.905 3030.5 960 3030.5C1490.1 3030.5 1969.99 3191.65 2317.35 3452.17C2664.7 3712.68 2879.5 4072.55 2879.5 4470C2879.5 4867.45 2664.7 5227.32 2317.35 5487.83C1969.99 5748.35 1490.1 5909.5 960 5909.5C429.904 5909.5 -49.988 5748.35 -397.345 5487.83C-744.702 5227.32 -959.5 4867.45 -959.5 4470Z" fill="url(#paint1_linear_6082_4666)" stroke="url(#paint2_linear_6082_4666)"/>
</g>
<g filter="url(#filter0_f_6082_4666)">
<rect x="-640" y="1475" width="640" height="320" rx="160" fill="url(#paint3_linear_6082_4666)"/>
</g>
<g filter="url(#filter1_f_6082_4666)">
<rect x="1920" y="1155" width="640" height="320" rx="160" fill="url(#paint4_linear_6082_4666)"/>
</g>
<g filter="url(#filter2_f_6082_4666)">
<rect x="-640" y="2063" width="640" height="320" rx="160" fill="url(#paint5_linear_6082_4666)"/>
</g>
<g filter="url(#filter3_f_6082_4666)">
<rect x="1920" y="1743" width="640" height="320" rx="160" fill="url(#paint6_linear_6082_4666)"/>
</g>
<rect width="1920" height="508" fill="url(#paint7_radial_6082_4666)"/>
<rect width="1920" height="508" fill="url(#paint8_radial_6082_4666)"/>
</g>
<defs>
<filter id="filter0_f_6082_4666" x="-1440" y="675" width="2240" height="1920" filterUnits="userSpaceOnUse" color-interpolation-filters="sRGB">
<feFlood flood-opacity="0" result="BackgroundImageFix"/>
<feBlend mode="normal" in="SourceGraphic" in2="BackgroundImageFix" result="shape"/>
<feGaussianBlur stdDeviation="400" result="effect1_foregroundBlur_6082_4666"/>
</filter>
<filter id="filter1_f_6082_4666" x="1120" y="355" width="2240" height="1920" filterUnits="userSpaceOnUse" color-interpolation-filters="sRGB">
<feFlood flood-opacity="0" result="BackgroundImageFix"/>
<feBlend mode="normal" in="SourceGraphic" in2="BackgroundImageFix" result="shape"/>
<feGaussianBlur stdDeviation="400" result="effect1_foregroundBlur_6082_4666"/>
</filter>
<filter id="filter2_f_6082_4666" x="-1440" y="1263" width="2240" height="1920" filterUnits="userSpaceOnUse" color-interpolation-filters="sRGB">
<feFlood flood-opacity="0" result="BackgroundImageFix"/>
<feBlend mode="normal" in="SourceGraphic" in2="BackgroundImageFix" result="shape"/>
<feGaussianBlur stdDeviation="400" result="effect1_foregroundBlur_6082_4666"/>
</filter>
<filter id="filter3_f_6082_4666" x="1120" y="943" width="2240" height="1920" filterUnits="userSpaceOnUse" color-interpolation-filters="sRGB">
<feFlood flood-opacity="0" result="BackgroundImageFix"/>
<feBlend mode="normal" in="SourceGraphic" in2="BackgroundImageFix" result="shape"/>
<feGaussianBlur stdDeviation="400" result="effect1_foregroundBlur_6082_4666"/>
</filter>
<radialGradient id="paint0_radial_6082_4666" cx="0" cy="0" r="1" gradientUnits="userSpaceOnUse" gradientTransform="translate(960 4395.5) scale(1174 721.962)">
<stop stop-color="#9A8DEC" stop-opacity="0.24"/>
<stop offset="1" stop-color="white" stop-opacity="0"/>
</radialGradient>
<linearGradient id="paint1_linear_6082_4666" x1="960" y1="2995" x2="960" y2="5910" gradientUnits="userSpaceOnUse">
<stop stop-color="#EEEBFF" stop-opacity="0.16"/>
<stop offset="0.05" stop-color="#030012" stop-opacity="0"/>
</linearGradient>
<linearGradient id="paint2_linear_6082_4666" x1="960" y1="5910" x2="960" y2="2995.5" gradientUnits="userSpaceOnUse">
<stop offset="0.95" stop-color="#030012" stop-opacity="0"/>
<stop offset="1" stop-color="#9A8DEC" stop-opacity="0.32"/>
</linearGradient>
<linearGradient id="paint3_linear_6082_4666" x1="-320" y1="1259.62" x2="-320" y2="1795" gradientUnits="userSpaceOnUse">
<stop stop-color="#9A8DEC"/>
<stop offset="1" stop-color="#7361E5"/>
</linearGradient>
<linearGradient id="paint4_linear_6082_4666" x1="2240" y1="939.615" x2="2240" y2="1475" gradientUnits="userSpaceOnUse">
<stop stop-color="#9A8DEC"/>
<stop offset="1" stop-color="#7361E5"/>
</linearGradient>
<linearGradient id="paint5_linear_6082_4666" x1="-320" y1="1847.62" x2="-320" y2="2383" gradientUnits="userSpaceOnUse">
<stop stop-color="#9A8DEC"/>
<stop offset="1" stop-color="#7361E5"/>
</linearGradient>
<linearGradient id="paint6_linear_6082_4666" x1="2240" y1="1527.62" x2="2240" y2="2063" gradientUnits="userSpaceOnUse">
<stop stop-color="#9A8DEC"/>
<stop offset="1" stop-color="#7361E5"/>
</linearGradient>
<radialGradient id="paint7_radial_6082_4666" cx="0" cy="0" r="1" gradientUnits="userSpaceOnUse" gradientTransform="translate(960 650.875) rotate(-90) scale(396.875 960)">
<stop stop-color="#9A8DEC" stop-opacity="0.12"/>
<stop offset="1" stop-color="white" stop-opacity="0"/>
</radialGradient>
<radialGradient id="paint8_radial_6082_4666" cx="0" cy="0" r="1" gradientUnits="userSpaceOnUse" gradientTransform="translate(960 -138.162) rotate(-90) scale(390.922 960)">
<stop stop-color="#9A8DEC" stop-opacity="0.08"/>
<stop offset="1" stop-color="white" stop-opacity="0"/>
</radialGradient>
<clipPath id="clip0_6082_4666">
<rect width="1920" height="4052" fill="white"/>
</clipPath>
</defs>
</svg>
