<svg width="1920" height="4154" viewBox="0 0 1920 4154" fill="none" xmlns="http://www.w3.org/2000/svg">
<g clip-path="url(#clip0_6162_2574)">
<rect width="1920" height="4154" fill="#030012"/>
<mask id="path-1-inside-1_6162_2574" fill="white">
<path d="M0 3696H1920V4154H0V3696Z"/>
</mask>
<path d="M0 3696H1920V4154H0V3696Z" fill="url(#paint0_radial_6162_2574)"/>
<path d="M0 3697H1920V3695H0V3697Z" fill="#EEEBFF" fill-opacity="0.08" mask="url(#path-1-inside-1_6162_2574)"/>
<mask id="mask0_6162_2574" style="mask-type:alpha" maskUnits="userSpaceOnUse" x="0" y="3132" width="1920" height="600">
<rect y="3132" width="1920" height="600" fill="#D9D9D9"/>
</mask>
<g mask="url(#mask0_6162_2574)">
<path d="M-959.5 4572C-959.5 4174.55 -744.702 3814.68 -397.345 3554.17C-49.9878 3293.65 429.905 3132.5 960 3132.5C1490.1 3132.5 1969.99 3293.65 2317.35 3554.17C2664.7 3814.68 2879.5 4174.55 2879.5 4572C2879.5 4969.45 2664.7 5329.32 2317.35 5589.83C1969.99 5850.35 1490.1 6011.5 960 6011.5C429.904 6011.5 -49.988 5850.35 -397.345 5589.83C-744.702 5329.32 -959.5 4969.45 -959.5 4572Z" fill="url(#paint1_linear_6162_2574)" stroke="url(#paint2_linear_6162_2574)"/>
</g>
<g filter="url(#filter0_f_6162_2574)">
<rect x="-640" y="832" width="640" height="320" rx="160" fill="url(#paint3_linear_6162_2574)"/>
</g>
<g filter="url(#filter1_f_6162_2574)">
<rect x="1920" y="512" width="640" height="320" rx="160" fill="url(#paint4_linear_6162_2574)"/>
</g>
<g filter="url(#filter2_f_6162_2574)">
<rect x="-640" y="1420" width="640" height="320" rx="160" fill="url(#paint5_linear_6162_2574)"/>
</g>
<g filter="url(#filter3_f_6162_2574)">
<rect x="1920" y="1100" width="640" height="320" rx="160" fill="url(#paint6_linear_6162_2574)"/>
</g>
<rect width="1920" height="436" fill="url(#paint7_radial_6162_2574)"/>
<rect width="1920" height="436" fill="url(#paint8_radial_6162_2574)"/>
</g>
<defs>
<filter id="filter0_f_6162_2574" x="-1440" y="32" width="2240" height="1920" filterUnits="userSpaceOnUse" color-interpolation-filters="sRGB">
<feFlood flood-opacity="0" result="BackgroundImageFix"/>
<feBlend mode="normal" in="SourceGraphic" in2="BackgroundImageFix" result="shape"/>
<feGaussianBlur stdDeviation="400" result="effect1_foregroundBlur_6162_2574"/>
</filter>
<filter id="filter1_f_6162_2574" x="1120" y="-288" width="2240" height="1920" filterUnits="userSpaceOnUse" color-interpolation-filters="sRGB">
<feFlood flood-opacity="0" result="BackgroundImageFix"/>
<feBlend mode="normal" in="SourceGraphic" in2="BackgroundImageFix" result="shape"/>
<feGaussianBlur stdDeviation="400" result="effect1_foregroundBlur_6162_2574"/>
</filter>
<filter id="filter2_f_6162_2574" x="-1440" y="620" width="2240" height="1920" filterUnits="userSpaceOnUse" color-interpolation-filters="sRGB">
<feFlood flood-opacity="0" result="BackgroundImageFix"/>
<feBlend mode="normal" in="SourceGraphic" in2="BackgroundImageFix" result="shape"/>
<feGaussianBlur stdDeviation="400" result="effect1_foregroundBlur_6162_2574"/>
</filter>
<filter id="filter3_f_6162_2574" x="1120" y="300" width="2240" height="1920" filterUnits="userSpaceOnUse" color-interpolation-filters="sRGB">
<feFlood flood-opacity="0" result="BackgroundImageFix"/>
<feBlend mode="normal" in="SourceGraphic" in2="BackgroundImageFix" result="shape"/>
<feGaussianBlur stdDeviation="400" result="effect1_foregroundBlur_6162_2574"/>
</filter>
<radialGradient id="paint0_radial_6162_2574" cx="0" cy="0" r="1" gradientUnits="userSpaceOnUse" gradientTransform="translate(960 4497.5) scale(1174 721.962)">
<stop stop-color="#9A8DEC" stop-opacity="0.24"/>
<stop offset="1" stop-color="white" stop-opacity="0"/>
</radialGradient>
<linearGradient id="paint1_linear_6162_2574" x1="960" y1="3097" x2="960" y2="6012" gradientUnits="userSpaceOnUse">
<stop stop-color="#EEEBFF" stop-opacity="0.16"/>
<stop offset="0.05" stop-color="#030012" stop-opacity="0"/>
</linearGradient>
<linearGradient id="paint2_linear_6162_2574" x1="960" y1="6012" x2="960" y2="3097.5" gradientUnits="userSpaceOnUse">
<stop offset="0.95" stop-color="#030012" stop-opacity="0"/>
<stop offset="1" stop-color="#9A8DEC" stop-opacity="0.32"/>
</linearGradient>
<linearGradient id="paint3_linear_6162_2574" x1="-320" y1="616.615" x2="-320" y2="1152" gradientUnits="userSpaceOnUse">
<stop stop-color="#9A8DEC"/>
<stop offset="1" stop-color="#7361E5"/>
</linearGradient>
<linearGradient id="paint4_linear_6162_2574" x1="2240" y1="296.615" x2="2240" y2="832" gradientUnits="userSpaceOnUse">
<stop stop-color="#9A8DEC"/>
<stop offset="1" stop-color="#7361E5"/>
</linearGradient>
<linearGradient id="paint5_linear_6162_2574" x1="-320" y1="1204.62" x2="-320" y2="1740" gradientUnits="userSpaceOnUse">
<stop stop-color="#9A8DEC"/>
<stop offset="1" stop-color="#7361E5"/>
</linearGradient>
<linearGradient id="paint6_linear_6162_2574" x1="2240" y1="884.615" x2="2240" y2="1420" gradientUnits="userSpaceOnUse">
<stop stop-color="#9A8DEC"/>
<stop offset="1" stop-color="#7361E5"/>
</linearGradient>
<radialGradient id="paint7_radial_6162_2574" cx="0" cy="0" r="1" gradientUnits="userSpaceOnUse" gradientTransform="translate(960 558.625) rotate(-90) scale(340.625 960)">
<stop stop-color="#9A8DEC" stop-opacity="0.12"/>
<stop offset="1" stop-color="white" stop-opacity="0"/>
</radialGradient>
<radialGradient id="paint8_radial_6162_2574" cx="0" cy="0" r="1" gradientUnits="userSpaceOnUse" gradientTransform="translate(960 -118.58) rotate(-90) scale(335.516 960)">
<stop stop-color="#9A8DEC" stop-opacity="0.08"/>
<stop offset="1" stop-color="white" stop-opacity="0"/>
</radialGradient>
<clipPath id="clip0_6162_2574">
<rect width="1920" height="4154" fill="white"/>
</clipPath>
</defs>
</svg>
