<svg width="1920" height="2836" viewBox="0 0 1920 2836" fill="none" xmlns="http://www.w3.org/2000/svg">
<g clip-path="url(#clip0_6284_2543)">
<rect width="1920" height="2836" fill="#030012"/>
<mask id="path-1-inside-1_6284_2543" fill="white">
<path d="M0 2378H1920V2836H0V2378Z"/>
</mask>
<path d="M0 2378H1920V2836H0V2378Z" fill="url(#paint0_radial_6284_2543)"/>
<path d="M0 2379H1920V2377H0V2379Z" fill="#EEEBFF" fill-opacity="0.08" mask="url(#path-1-inside-1_6284_2543)"/>
<mask id="mask0_6284_2543" style="mask-type:alpha" maskUnits="userSpaceOnUse" x="0" y="1814" width="1920" height="600">
<rect y="1814" width="1920" height="600" fill="#D9D9D9"/>
</mask>
<g mask="url(#mask0_6284_2543)">
<path d="M-959.5 3254C-959.5 2856.55 -744.702 2496.68 -397.345 2236.17C-49.9878 1975.65 429.905 1814.5 960 1814.5C1490.1 1814.5 1969.99 1975.65 2317.35 2236.17C2664.7 2496.68 2879.5 2856.55 2879.5 3254C2879.5 3651.45 2664.7 4011.32 2317.35 4271.83C1969.99 4532.35 1490.1 4693.5 960 4693.5C429.904 4693.5 -49.988 4532.35 -397.345 4271.83C-744.702 4011.32 -959.5 3651.45 -959.5 3254Z" fill="url(#paint1_linear_6284_2543)" stroke="url(#paint2_linear_6284_2543)"/>
</g>
<g filter="url(#filter0_f_6284_2543)">
<rect x="-640" y="867" width="640" height="320" rx="160" fill="url(#paint3_linear_6284_2543)"/>
</g>
<g filter="url(#filter1_f_6284_2543)">
<rect x="1920" y="547" width="640" height="320" rx="160" fill="url(#paint4_linear_6284_2543)"/>
</g>
<g filter="url(#filter2_f_6284_2543)">
<rect x="-640" y="1455" width="640" height="320" rx="160" fill="url(#paint5_linear_6284_2543)"/>
</g>
<g filter="url(#filter3_f_6284_2543)">
<rect x="1920" y="1135" width="640" height="320" rx="160" fill="url(#paint6_linear_6284_2543)"/>
</g>
<rect width="1920" height="508" fill="url(#paint7_radial_6284_2543)"/>
<rect width="1920" height="508" fill="url(#paint8_radial_6284_2543)"/>
</g>
<defs>
<filter id="filter0_f_6284_2543" x="-1440" y="67" width="2240" height="1920" filterUnits="userSpaceOnUse" color-interpolation-filters="sRGB">
<feFlood flood-opacity="0" result="BackgroundImageFix"/>
<feBlend mode="normal" in="SourceGraphic" in2="BackgroundImageFix" result="shape"/>
<feGaussianBlur stdDeviation="400" result="effect1_foregroundBlur_6284_2543"/>
</filter>
<filter id="filter1_f_6284_2543" x="1120" y="-253" width="2240" height="1920" filterUnits="userSpaceOnUse" color-interpolation-filters="sRGB">
<feFlood flood-opacity="0" result="BackgroundImageFix"/>
<feBlend mode="normal" in="SourceGraphic" in2="BackgroundImageFix" result="shape"/>
<feGaussianBlur stdDeviation="400" result="effect1_foregroundBlur_6284_2543"/>
</filter>
<filter id="filter2_f_6284_2543" x="-1440" y="655" width="2240" height="1920" filterUnits="userSpaceOnUse" color-interpolation-filters="sRGB">
<feFlood flood-opacity="0" result="BackgroundImageFix"/>
<feBlend mode="normal" in="SourceGraphic" in2="BackgroundImageFix" result="shape"/>
<feGaussianBlur stdDeviation="400" result="effect1_foregroundBlur_6284_2543"/>
</filter>
<filter id="filter3_f_6284_2543" x="1120" y="335" width="2240" height="1920" filterUnits="userSpaceOnUse" color-interpolation-filters="sRGB">
<feFlood flood-opacity="0" result="BackgroundImageFix"/>
<feBlend mode="normal" in="SourceGraphic" in2="BackgroundImageFix" result="shape"/>
<feGaussianBlur stdDeviation="400" result="effect1_foregroundBlur_6284_2543"/>
</filter>
<radialGradient id="paint0_radial_6284_2543" cx="0" cy="0" r="1" gradientUnits="userSpaceOnUse" gradientTransform="translate(960 3179.5) scale(1174 721.962)">
<stop stop-color="#9A8DEC" stop-opacity="0.24"/>
<stop offset="1" stop-color="white" stop-opacity="0"/>
</radialGradient>
<linearGradient id="paint1_linear_6284_2543" x1="960" y1="1779" x2="960" y2="4694" gradientUnits="userSpaceOnUse">
<stop stop-color="#EEEBFF" stop-opacity="0.16"/>
<stop offset="0.05" stop-color="#030012" stop-opacity="0"/>
</linearGradient>
<linearGradient id="paint2_linear_6284_2543" x1="960" y1="4694" x2="960" y2="1779.5" gradientUnits="userSpaceOnUse">
<stop offset="0.95" stop-color="#030012" stop-opacity="0"/>
<stop offset="1" stop-color="#9A8DEC" stop-opacity="0.32"/>
</linearGradient>
<linearGradient id="paint3_linear_6284_2543" x1="-320" y1="651.615" x2="-320" y2="1187" gradientUnits="userSpaceOnUse">
<stop stop-color="#9A8DEC"/>
<stop offset="1" stop-color="#7361E5"/>
</linearGradient>
<linearGradient id="paint4_linear_6284_2543" x1="2240" y1="331.615" x2="2240" y2="867" gradientUnits="userSpaceOnUse">
<stop stop-color="#9A8DEC"/>
<stop offset="1" stop-color="#7361E5"/>
</linearGradient>
<linearGradient id="paint5_linear_6284_2543" x1="-320" y1="1239.62" x2="-320" y2="1775" gradientUnits="userSpaceOnUse">
<stop stop-color="#9A8DEC"/>
<stop offset="1" stop-color="#7361E5"/>
</linearGradient>
<linearGradient id="paint6_linear_6284_2543" x1="2240" y1="919.615" x2="2240" y2="1455" gradientUnits="userSpaceOnUse">
<stop stop-color="#9A8DEC"/>
<stop offset="1" stop-color="#7361E5"/>
</linearGradient>
<radialGradient id="paint7_radial_6284_2543" cx="0" cy="0" r="1" gradientUnits="userSpaceOnUse" gradientTransform="translate(960 650.875) rotate(-90) scale(396.875 960)">
<stop stop-color="#9A8DEC" stop-opacity="0.12"/>
<stop offset="1" stop-color="white" stop-opacity="0"/>
</radialGradient>
<radialGradient id="paint8_radial_6284_2543" cx="0" cy="0" r="1" gradientUnits="userSpaceOnUse" gradientTransform="translate(960 -138.162) rotate(-90) scale(390.922 960)">
<stop stop-color="#9A8DEC" stop-opacity="0.08"/>
<stop offset="1" stop-color="white" stop-opacity="0"/>
</radialGradient>
<clipPath id="clip0_6284_2543">
<rect width="1920" height="2836" fill="white"/>
</clipPath>
</defs>
</svg>
