<svg width="1920" height="4042" viewBox="0 0 1920 4042" fill="none" xmlns="http://www.w3.org/2000/svg">
<g clip-path="url(#clip0_6304_3084)">
<rect width="1920" height="4042" fill="#030012"/>
<mask id="path-1-inside-1_6304_3084" fill="white">
<path d="M0 3584H1920V4042H0V3584Z"/>
</mask>
<path d="M0 3584H1920V4042H0V3584Z" fill="url(#paint0_radial_6304_3084)"/>
<path d="M0 3585H1920V3583H0V3585Z" fill="#EEEBFF" fill-opacity="0.08" mask="url(#path-1-inside-1_6304_3084)"/>
<mask id="mask0_6304_3084" style="mask-type:alpha" maskUnits="userSpaceOnUse" x="0" y="3020" width="1920" height="600">
<rect y="3020" width="1920" height="600" fill="#D9D9D9"/>
</mask>
<g mask="url(#mask0_6304_3084)">
<path d="M-959.5 4460C-959.5 4062.55 -744.702 3702.68 -397.345 3442.17C-49.9878 3181.65 429.905 3020.5 960 3020.5C1490.1 3020.5 1969.99 3181.65 2317.35 3442.17C2664.7 3702.68 2879.5 4062.55 2879.5 4460C2879.5 4857.45 2664.7 5217.32 2317.35 5477.83C1969.99 5738.35 1490.1 5899.5 960 5899.5C429.904 5899.5 -49.988 5738.35 -397.345 5477.83C-744.702 5217.32 -959.5 4857.45 -959.5 4460Z" fill="url(#paint1_linear_6304_3084)" stroke="url(#paint2_linear_6304_3084)"/>
</g>
<rect y="2224" width="1920" height="796" fill="url(#paint3_radial_6304_3084)"/>
<rect x="0.5" y="2224.5" width="1919" height="795" stroke="#9A8DEC" stroke-opacity="0.08"/>
<g filter="url(#filter0_f_6304_3084)">
<rect x="-640" y="666" width="640" height="320" rx="160" fill="url(#paint4_linear_6304_3084)"/>
</g>
<g filter="url(#filter1_f_6304_3084)">
<rect x="1920" y="346" width="640" height="320" rx="160" fill="url(#paint5_linear_6304_3084)"/>
</g>
<g filter="url(#filter2_f_6304_3084)">
<rect x="-640" y="1254" width="640" height="320" rx="160" fill="url(#paint6_linear_6304_3084)"/>
</g>
<g filter="url(#filter3_f_6304_3084)">
<rect x="1920" y="934" width="640" height="320" rx="160" fill="url(#paint7_linear_6304_3084)"/>
</g>
<rect width="1920" height="436" fill="url(#paint8_radial_6304_3084)"/>
<rect width="1920" height="436" fill="url(#paint9_radial_6304_3084)"/>
</g>
<defs>
<filter id="filter0_f_6304_3084" x="-1440" y="-134" width="2240" height="1920" filterUnits="userSpaceOnUse" color-interpolation-filters="sRGB">
<feFlood flood-opacity="0" result="BackgroundImageFix"/>
<feBlend mode="normal" in="SourceGraphic" in2="BackgroundImageFix" result="shape"/>
<feGaussianBlur stdDeviation="400" result="effect1_foregroundBlur_6304_3084"/>
</filter>
<filter id="filter1_f_6304_3084" x="1120" y="-454" width="2240" height="1920" filterUnits="userSpaceOnUse" color-interpolation-filters="sRGB">
<feFlood flood-opacity="0" result="BackgroundImageFix"/>
<feBlend mode="normal" in="SourceGraphic" in2="BackgroundImageFix" result="shape"/>
<feGaussianBlur stdDeviation="400" result="effect1_foregroundBlur_6304_3084"/>
</filter>
<filter id="filter2_f_6304_3084" x="-1440" y="454" width="2240" height="1920" filterUnits="userSpaceOnUse" color-interpolation-filters="sRGB">
<feFlood flood-opacity="0" result="BackgroundImageFix"/>
<feBlend mode="normal" in="SourceGraphic" in2="BackgroundImageFix" result="shape"/>
<feGaussianBlur stdDeviation="400" result="effect1_foregroundBlur_6304_3084"/>
</filter>
<filter id="filter3_f_6304_3084" x="1120" y="134" width="2240" height="1920" filterUnits="userSpaceOnUse" color-interpolation-filters="sRGB">
<feFlood flood-opacity="0" result="BackgroundImageFix"/>
<feBlend mode="normal" in="SourceGraphic" in2="BackgroundImageFix" result="shape"/>
<feGaussianBlur stdDeviation="400" result="effect1_foregroundBlur_6304_3084"/>
</filter>
<radialGradient id="paint0_radial_6304_3084" cx="0" cy="0" r="1" gradientUnits="userSpaceOnUse" gradientTransform="translate(960 4385.5) scale(1174 721.962)">
<stop stop-color="#9A8DEC" stop-opacity="0.24"/>
<stop offset="1" stop-color="white" stop-opacity="0"/>
</radialGradient>
<linearGradient id="paint1_linear_6304_3084" x1="960" y1="2985" x2="960" y2="5900" gradientUnits="userSpaceOnUse">
<stop stop-color="#EEEBFF" stop-opacity="0.16"/>
<stop offset="0.05" stop-color="#030012" stop-opacity="0"/>
</linearGradient>
<linearGradient id="paint2_linear_6304_3084" x1="960" y1="5900" x2="960" y2="2985.5" gradientUnits="userSpaceOnUse">
<stop offset="0.95" stop-color="#030012" stop-opacity="0"/>
<stop offset="1" stop-color="#9A8DEC" stop-opacity="0.32"/>
</linearGradient>
<radialGradient id="paint3_radial_6304_3084" cx="0" cy="0" r="1" gradientUnits="userSpaceOnUse" gradientTransform="translate(960 2007.51) rotate(-90) scale(612.547 960)">
<stop stop-color="#9A8DEC" stop-opacity="0.08"/>
<stop offset="1" stop-color="white" stop-opacity="0"/>
</radialGradient>
<linearGradient id="paint4_linear_6304_3084" x1="-320" y1="450.615" x2="-320" y2="986" gradientUnits="userSpaceOnUse">
<stop stop-color="#9A8DEC"/>
<stop offset="1" stop-color="#7361E5"/>
</linearGradient>
<linearGradient id="paint5_linear_6304_3084" x1="2240" y1="130.615" x2="2240" y2="666" gradientUnits="userSpaceOnUse">
<stop stop-color="#9A8DEC"/>
<stop offset="1" stop-color="#7361E5"/>
</linearGradient>
<linearGradient id="paint6_linear_6304_3084" x1="-320" y1="1038.62" x2="-320" y2="1574" gradientUnits="userSpaceOnUse">
<stop stop-color="#9A8DEC"/>
<stop offset="1" stop-color="#7361E5"/>
</linearGradient>
<linearGradient id="paint7_linear_6304_3084" x1="2240" y1="718.615" x2="2240" y2="1254" gradientUnits="userSpaceOnUse">
<stop stop-color="#9A8DEC"/>
<stop offset="1" stop-color="#7361E5"/>
</linearGradient>
<radialGradient id="paint8_radial_6304_3084" cx="0" cy="0" r="1" gradientUnits="userSpaceOnUse" gradientTransform="translate(960 558.625) rotate(-90) scale(340.625 960)">
<stop stop-color="#9A8DEC" stop-opacity="0.12"/>
<stop offset="1" stop-color="white" stop-opacity="0"/>
</radialGradient>
<radialGradient id="paint9_radial_6304_3084" cx="0" cy="0" r="1" gradientUnits="userSpaceOnUse" gradientTransform="translate(960 -118.58) rotate(-90) scale(335.516 960)">
<stop stop-color="#9A8DEC" stop-opacity="0.08"/>
<stop offset="1" stop-color="white" stop-opacity="0"/>
</radialGradient>
<clipPath id="clip0_6304_3084">
<rect width="1920" height="4042" fill="white"/>
</clipPath>
</defs>
</svg>
