<svg width="1920" height="2446" viewBox="0 0 1920 2446" fill="none" xmlns="http://www.w3.org/2000/svg">
<g clip-path="url(#clip0_5803_1976)">
<rect width="1920" height="2446" fill="#030012"/>
<mask id="path-1-inside-1_5803_1976" fill="white">
<path d="M0 1988H1920V2446H0V1988Z"/>
</mask>
<path d="M0 1988H1920V2446H0V1988Z" fill="url(#paint0_radial_5803_1976)"/>
<path d="M0 1989H1920V1987H0V1989Z" fill="#EEEBFF" fill-opacity="0.08" mask="url(#path-1-inside-1_5803_1976)"/>
<mask id="mask0_5803_1976" style="mask-type:alpha" maskUnits="userSpaceOnUse" x="0" y="1424" width="1920" height="600">
<rect y="1424" width="1920" height="600" fill="#D9D9D9"/>
</mask>
<g mask="url(#mask0_5803_1976)">
<path d="M-959.5 2864C-959.5 2466.55 -744.702 2106.68 -397.345 1846.17C-49.9878 1585.65 429.905 1424.5 960 1424.5C1490.1 1424.5 1969.99 1585.65 2317.35 1846.17C2664.7 2106.68 2879.5 2466.55 2879.5 2864C2879.5 3261.45 2664.7 3621.32 2317.35 3881.83C1969.99 4142.35 1490.1 4303.5 960 4303.5C429.904 4303.5 -49.988 4142.35 -397.345 3881.83C-744.702 3621.32 -959.5 3261.45 -959.5 2864Z" fill="url(#paint1_linear_5803_1976)" stroke="url(#paint2_linear_5803_1976)"/>
</g>
<g filter="url(#filter0_f_5803_1976)">
<rect x="-640" y="1008" width="640" height="320" rx="160" fill="url(#paint3_linear_5803_1976)"/>
</g>
<g filter="url(#filter1_f_5803_1976)">
<rect x="1920" y="688" width="640" height="320" rx="160" fill="url(#paint4_linear_5803_1976)"/>
</g>
<rect width="1920" height="508" fill="url(#paint5_radial_5803_1976)"/>
<rect width="1920" height="508" fill="url(#paint6_radial_5803_1976)"/>
</g>
<defs>
<filter id="filter0_f_5803_1976" x="-1440" y="208" width="2240" height="1920" filterUnits="userSpaceOnUse" color-interpolation-filters="sRGB">
<feFlood flood-opacity="0" result="BackgroundImageFix"/>
<feBlend mode="normal" in="SourceGraphic" in2="BackgroundImageFix" result="shape"/>
<feGaussianBlur stdDeviation="400" result="effect1_foregroundBlur_5803_1976"/>
</filter>
<filter id="filter1_f_5803_1976" x="1120" y="-112" width="2240" height="1920" filterUnits="userSpaceOnUse" color-interpolation-filters="sRGB">
<feFlood flood-opacity="0" result="BackgroundImageFix"/>
<feBlend mode="normal" in="SourceGraphic" in2="BackgroundImageFix" result="shape"/>
<feGaussianBlur stdDeviation="400" result="effect1_foregroundBlur_5803_1976"/>
</filter>
<radialGradient id="paint0_radial_5803_1976" cx="0" cy="0" r="1" gradientUnits="userSpaceOnUse" gradientTransform="translate(960 2789.5) scale(1174 721.962)">
<stop stop-color="#9A8DEC" stop-opacity="0.24"/>
<stop offset="1" stop-color="white" stop-opacity="0"/>
</radialGradient>
<linearGradient id="paint1_linear_5803_1976" x1="960" y1="1389" x2="960" y2="4304" gradientUnits="userSpaceOnUse">
<stop stop-color="#EEEBFF" stop-opacity="0.16"/>
<stop offset="0.05" stop-color="#030012" stop-opacity="0"/>
</linearGradient>
<linearGradient id="paint2_linear_5803_1976" x1="960" y1="4304" x2="960" y2="1389.5" gradientUnits="userSpaceOnUse">
<stop offset="0.95" stop-color="#030012" stop-opacity="0"/>
<stop offset="1" stop-color="#9A8DEC" stop-opacity="0.32"/>
</linearGradient>
<linearGradient id="paint3_linear_5803_1976" x1="-320" y1="792.615" x2="-320" y2="1328" gradientUnits="userSpaceOnUse">
<stop stop-color="#9A8DEC"/>
<stop offset="1" stop-color="#7361E5"/>
</linearGradient>
<linearGradient id="paint4_linear_5803_1976" x1="2240" y1="472.615" x2="2240" y2="1008" gradientUnits="userSpaceOnUse">
<stop stop-color="#9A8DEC"/>
<stop offset="1" stop-color="#7361E5"/>
</linearGradient>
<radialGradient id="paint5_radial_5803_1976" cx="0" cy="0" r="1" gradientUnits="userSpaceOnUse" gradientTransform="translate(960 650.875) rotate(-90) scale(396.875 960)">
<stop stop-color="#9A8DEC" stop-opacity="0.12"/>
<stop offset="1" stop-color="white" stop-opacity="0"/>
</radialGradient>
<radialGradient id="paint6_radial_5803_1976" cx="0" cy="0" r="1" gradientUnits="userSpaceOnUse" gradientTransform="translate(960 -138.162) rotate(-90) scale(390.922 960)">
<stop stop-color="#9A8DEC" stop-opacity="0.08"/>
<stop offset="1" stop-color="white" stop-opacity="0"/>
</radialGradient>
<clipPath id="clip0_5803_1976">
<rect width="1920" height="2446" fill="white"/>
</clipPath>
</defs>
</svg>
