<svg width="1920" height="4040" viewBox="0 0 1920 4040" fill="none" xmlns="http://www.w3.org/2000/svg">
<g clip-path="url(#clip0_6349_5926)">
<rect width="1920" height="4040" fill="#030012"/>
<mask id="path-1-inside-1_6349_5926" fill="white">
<path d="M0 3582H1920V4040H0V3582Z"/>
</mask>
<path d="M0 3582H1920V4040H0V3582Z" fill="url(#paint0_radial_6349_5926)"/>
<path d="M0 3583H1920V3581H0V3583Z" fill="#EEEBFF" fill-opacity="0.08" mask="url(#path-1-inside-1_6349_5926)"/>
<mask id="mask0_6349_5926" style="mask-type:alpha" maskUnits="userSpaceOnUse" x="0" y="3018" width="1920" height="600">
<rect y="3018" width="1920" height="600" fill="#D9D9D9"/>
</mask>
<g mask="url(#mask0_6349_5926)">
<path d="M-959.5 4458C-959.5 4060.55 -744.702 3700.68 -397.345 3440.17C-49.9878 3179.65 429.905 3018.5 960 3018.5C1490.1 3018.5 1969.99 3179.65 2317.35 3440.17C2664.7 3700.68 2879.5 4060.55 2879.5 4458C2879.5 4855.45 2664.7 5215.32 2317.35 5475.83C1969.99 5736.35 1490.1 5897.5 960 5897.5C429.904 5897.5 -49.988 5736.35 -397.345 5475.83C-744.702 5215.32 -959.5 4855.45 -959.5 4458Z" fill="url(#paint1_linear_6349_5926)" stroke="url(#paint2_linear_6349_5926)"/>
</g>
<g filter="url(#filter0_f_6349_5926)">
<rect x="-640" y="1469" width="640" height="320" rx="160" fill="url(#paint3_linear_6349_5926)"/>
</g>
<g filter="url(#filter1_f_6349_5926)">
<rect x="1920" y="1149" width="640" height="320" rx="160" fill="url(#paint4_linear_6349_5926)"/>
</g>
<g filter="url(#filter2_f_6349_5926)">
<rect x="-640" y="2057" width="640" height="320" rx="160" fill="url(#paint5_linear_6349_5926)"/>
</g>
<g filter="url(#filter3_f_6349_5926)">
<rect x="1920" y="1737" width="640" height="320" rx="160" fill="url(#paint6_linear_6349_5926)"/>
</g>
<rect width="1920" height="508" fill="url(#paint7_radial_6349_5926)"/>
<rect width="1920" height="508" fill="url(#paint8_radial_6349_5926)"/>
</g>
<defs>
<filter id="filter0_f_6349_5926" x="-1440" y="669" width="2240" height="1920" filterUnits="userSpaceOnUse" color-interpolation-filters="sRGB">
<feFlood flood-opacity="0" result="BackgroundImageFix"/>
<feBlend mode="normal" in="SourceGraphic" in2="BackgroundImageFix" result="shape"/>
<feGaussianBlur stdDeviation="400" result="effect1_foregroundBlur_6349_5926"/>
</filter>
<filter id="filter1_f_6349_5926" x="1120" y="349" width="2240" height="1920" filterUnits="userSpaceOnUse" color-interpolation-filters="sRGB">
<feFlood flood-opacity="0" result="BackgroundImageFix"/>
<feBlend mode="normal" in="SourceGraphic" in2="BackgroundImageFix" result="shape"/>
<feGaussianBlur stdDeviation="400" result="effect1_foregroundBlur_6349_5926"/>
</filter>
<filter id="filter2_f_6349_5926" x="-1440" y="1257" width="2240" height="1920" filterUnits="userSpaceOnUse" color-interpolation-filters="sRGB">
<feFlood flood-opacity="0" result="BackgroundImageFix"/>
<feBlend mode="normal" in="SourceGraphic" in2="BackgroundImageFix" result="shape"/>
<feGaussianBlur stdDeviation="400" result="effect1_foregroundBlur_6349_5926"/>
</filter>
<filter id="filter3_f_6349_5926" x="1120" y="937" width="2240" height="1920" filterUnits="userSpaceOnUse" color-interpolation-filters="sRGB">
<feFlood flood-opacity="0" result="BackgroundImageFix"/>
<feBlend mode="normal" in="SourceGraphic" in2="BackgroundImageFix" result="shape"/>
<feGaussianBlur stdDeviation="400" result="effect1_foregroundBlur_6349_5926"/>
</filter>
<radialGradient id="paint0_radial_6349_5926" cx="0" cy="0" r="1" gradientUnits="userSpaceOnUse" gradientTransform="translate(960 4383.5) scale(1174 721.962)">
<stop stop-color="#9A8DEC" stop-opacity="0.24"/>
<stop offset="1" stop-color="white" stop-opacity="0"/>
</radialGradient>
<linearGradient id="paint1_linear_6349_5926" x1="960" y1="2983" x2="960" y2="5898" gradientUnits="userSpaceOnUse">
<stop stop-color="#EEEBFF" stop-opacity="0.16"/>
<stop offset="0.05" stop-color="#030012" stop-opacity="0"/>
</linearGradient>
<linearGradient id="paint2_linear_6349_5926" x1="960" y1="5898" x2="960" y2="2983.5" gradientUnits="userSpaceOnUse">
<stop offset="0.95" stop-color="#030012" stop-opacity="0"/>
<stop offset="1" stop-color="#9A8DEC" stop-opacity="0.32"/>
</linearGradient>
<linearGradient id="paint3_linear_6349_5926" x1="-320" y1="1253.62" x2="-320" y2="1789" gradientUnits="userSpaceOnUse">
<stop stop-color="#9A8DEC"/>
<stop offset="1" stop-color="#7361E5"/>
</linearGradient>
<linearGradient id="paint4_linear_6349_5926" x1="2240" y1="933.615" x2="2240" y2="1469" gradientUnits="userSpaceOnUse">
<stop stop-color="#9A8DEC"/>
<stop offset="1" stop-color="#7361E5"/>
</linearGradient>
<linearGradient id="paint5_linear_6349_5926" x1="-320" y1="1841.62" x2="-320" y2="2377" gradientUnits="userSpaceOnUse">
<stop stop-color="#9A8DEC"/>
<stop offset="1" stop-color="#7361E5"/>
</linearGradient>
<linearGradient id="paint6_linear_6349_5926" x1="2240" y1="1521.62" x2="2240" y2="2057" gradientUnits="userSpaceOnUse">
<stop stop-color="#9A8DEC"/>
<stop offset="1" stop-color="#7361E5"/>
</linearGradient>
<radialGradient id="paint7_radial_6349_5926" cx="0" cy="0" r="1" gradientUnits="userSpaceOnUse" gradientTransform="translate(960 650.875) rotate(-90) scale(396.875 960)">
<stop stop-color="#9A8DEC" stop-opacity="0.12"/>
<stop offset="1" stop-color="white" stop-opacity="0"/>
</radialGradient>
<radialGradient id="paint8_radial_6349_5926" cx="0" cy="0" r="1" gradientUnits="userSpaceOnUse" gradientTransform="translate(960 -138.162) rotate(-90) scale(390.922 960)">
<stop stop-color="#9A8DEC" stop-opacity="0.08"/>
<stop offset="1" stop-color="white" stop-opacity="0"/>
</radialGradient>
<clipPath id="clip0_6349_5926">
<rect width="1920" height="4040" fill="white"/>
</clipPath>
</defs>
</svg>
