<svg width="1920" height="4494" viewBox="0 0 1920 4494" fill="none" xmlns="http://www.w3.org/2000/svg">
<g clip-path="url(#clip0_5980_2859)">
<rect width="1920" height="4494" fill="#030012"/>
<mask id="path-1-inside-1_5980_2859" fill="white">
<path d="M0 4036H1920V4494H0V4036Z"/>
</mask>
<path d="M0 4036H1920V4494H0V4036Z" fill="url(#paint0_radial_5980_2859)"/>
<path d="M0 4037H1920V4035H0V4037Z" fill="#EEEBFF" fill-opacity="0.08" mask="url(#path-1-inside-1_5980_2859)"/>
<mask id="mask0_5980_2859" style="mask-type:alpha" maskUnits="userSpaceOnUse" x="0" y="3472" width="1920" height="600">
<rect y="3472" width="1920" height="600" fill="#D9D9D9"/>
</mask>
<g mask="url(#mask0_5980_2859)">
<path d="M-959.5 4912C-959.5 4514.55 -744.702 4154.68 -397.345 3894.17C-49.988 3633.65 429.904 3472.5 960 3472.5C1490.1 3472.5 1969.99 3633.65 2317.35 3894.17C2664.7 4154.68 2879.5 4514.55 2879.5 4912C2879.5 5309.45 2664.7 5669.32 2317.34 5929.83C1969.99 6190.35 1490.1 6351.5 960 6351.5C429.904 6351.5 -49.9883 6190.35 -397.345 5929.83C-744.702 5669.32 -959.5 5309.45 -959.5 4912Z" fill="url(#paint1_linear_5980_2859)" stroke="url(#paint2_linear_5980_2859)"/>
</g>
<g filter="url(#filter0_f_5980_2859)">
<rect x="-640" y="1696" width="640" height="320" rx="160" fill="url(#paint3_linear_5980_2859)"/>
</g>
<g filter="url(#filter1_f_5980_2859)">
<rect x="1920" y="1376" width="640" height="320" rx="160" fill="url(#paint4_linear_5980_2859)"/>
</g>
<g filter="url(#filter2_f_5980_2859)">
<rect x="-640" y="2284" width="640" height="320" rx="160" fill="url(#paint5_linear_5980_2859)"/>
</g>
<g filter="url(#filter3_f_5980_2859)">
<rect x="1920" y="1964" width="640" height="320" rx="160" fill="url(#paint6_linear_5980_2859)"/>
</g>
<rect width="1920" height="508" fill="url(#paint7_radial_5980_2859)"/>
<rect width="1920" height="508" fill="url(#paint8_radial_5980_2859)"/>
</g>
<defs>
<filter id="filter0_f_5980_2859" x="-1440" y="896" width="2240" height="1920" filterUnits="userSpaceOnUse" color-interpolation-filters="sRGB">
<feFlood flood-opacity="0" result="BackgroundImageFix"/>
<feBlend mode="normal" in="SourceGraphic" in2="BackgroundImageFix" result="shape"/>
<feGaussianBlur stdDeviation="400" result="effect1_foregroundBlur_5980_2859"/>
</filter>
<filter id="filter1_f_5980_2859" x="1120" y="576" width="2240" height="1920" filterUnits="userSpaceOnUse" color-interpolation-filters="sRGB">
<feFlood flood-opacity="0" result="BackgroundImageFix"/>
<feBlend mode="normal" in="SourceGraphic" in2="BackgroundImageFix" result="shape"/>
<feGaussianBlur stdDeviation="400" result="effect1_foregroundBlur_5980_2859"/>
</filter>
<filter id="filter2_f_5980_2859" x="-1440" y="1484" width="2240" height="1920" filterUnits="userSpaceOnUse" color-interpolation-filters="sRGB">
<feFlood flood-opacity="0" result="BackgroundImageFix"/>
<feBlend mode="normal" in="SourceGraphic" in2="BackgroundImageFix" result="shape"/>
<feGaussianBlur stdDeviation="400" result="effect1_foregroundBlur_5980_2859"/>
</filter>
<filter id="filter3_f_5980_2859" x="1120" y="1164" width="2240" height="1920" filterUnits="userSpaceOnUse" color-interpolation-filters="sRGB">
<feFlood flood-opacity="0" result="BackgroundImageFix"/>
<feBlend mode="normal" in="SourceGraphic" in2="BackgroundImageFix" result="shape"/>
<feGaussianBlur stdDeviation="400" result="effect1_foregroundBlur_5980_2859"/>
</filter>
<radialGradient id="paint0_radial_5980_2859" cx="0" cy="0" r="1" gradientUnits="userSpaceOnUse" gradientTransform="translate(960 4837.5) scale(1174 721.962)">
<stop stop-color="#9A8DEC" stop-opacity="0.24"/>
<stop offset="1" stop-color="white" stop-opacity="0"/>
</radialGradient>
<linearGradient id="paint1_linear_5980_2859" x1="960" y1="3437" x2="960" y2="6352" gradientUnits="userSpaceOnUse">
<stop stop-color="#EEEBFF" stop-opacity="0.16"/>
<stop offset="0.05" stop-color="#030012" stop-opacity="0"/>
</linearGradient>
<linearGradient id="paint2_linear_5980_2859" x1="960" y1="6352" x2="960" y2="3437.5" gradientUnits="userSpaceOnUse">
<stop offset="0.95" stop-color="#030012" stop-opacity="0"/>
<stop offset="1" stop-color="#9A8DEC" stop-opacity="0.32"/>
</linearGradient>
<linearGradient id="paint3_linear_5980_2859" x1="-320" y1="1480.62" x2="-320" y2="2016" gradientUnits="userSpaceOnUse">
<stop stop-color="#9A8DEC"/>
<stop offset="1" stop-color="#7361E5"/>
</linearGradient>
<linearGradient id="paint4_linear_5980_2859" x1="2240" y1="1160.62" x2="2240" y2="1696" gradientUnits="userSpaceOnUse">
<stop stop-color="#9A8DEC"/>
<stop offset="1" stop-color="#7361E5"/>
</linearGradient>
<linearGradient id="paint5_linear_5980_2859" x1="-320" y1="2068.62" x2="-320" y2="2604" gradientUnits="userSpaceOnUse">
<stop stop-color="#9A8DEC"/>
<stop offset="1" stop-color="#7361E5"/>
</linearGradient>
<linearGradient id="paint6_linear_5980_2859" x1="2240" y1="1748.62" x2="2240" y2="2284" gradientUnits="userSpaceOnUse">
<stop stop-color="#9A8DEC"/>
<stop offset="1" stop-color="#7361E5"/>
</linearGradient>
<radialGradient id="paint7_radial_5980_2859" cx="0" cy="0" r="1" gradientUnits="userSpaceOnUse" gradientTransform="translate(960 650.875) rotate(-90) scale(396.875 960)">
<stop stop-color="#9A8DEC" stop-opacity="0.12"/>
<stop offset="1" stop-color="white" stop-opacity="0"/>
</radialGradient>
<radialGradient id="paint8_radial_5980_2859" cx="0" cy="0" r="1" gradientUnits="userSpaceOnUse" gradientTransform="translate(960 -138.162) rotate(-90) scale(390.922 960)">
<stop stop-color="#9A8DEC" stop-opacity="0.08"/>
<stop offset="1" stop-color="white" stop-opacity="0"/>
</radialGradient>
<clipPath id="clip0_5980_2859">
<rect width="1920" height="4494" fill="white"/>
</clipPath>
</defs>
</svg>
