<svg width="1920" height="4188" viewBox="0 0 1920 4188" fill="none" xmlns="http://www.w3.org/2000/svg">
<g clip-path="url(#clip0_5886_1081)">
<rect width="1920" height="4188" fill="#030012"/>
<mask id="path-1-inside-1_5886_1081" fill="white">
<path d="M0 3766H1920V4224H0V3766Z"/>
</mask>
<path d="M0 3766H1920V4224H0V3766Z" fill="url(#paint0_radial_5886_1081)"/>
<path d="M0 3767H1920V3765H0V3767Z" fill="#EEEBFF" fill-opacity="0.08" mask="url(#path-1-inside-1_5886_1081)"/>
<mask id="mask0_5886_1081" style="mask-type:alpha" maskUnits="userSpaceOnUse" x="0" y="3166" width="1920" height="600">
<rect y="3166" width="1920" height="600" fill="#D9D9D9"/>
</mask>
<g mask="url(#mask0_5886_1081)">
<path d="M-959.5 4606C-959.5 4208.55 -744.702 3848.68 -397.345 3588.17C-49.988 3327.65 429.904 3166.5 960 3166.5C1490.1 3166.5 1969.99 3327.65 2317.35 3588.17C2664.7 3848.68 2879.5 4208.55 2879.5 4606C2879.5 5003.45 2664.7 5363.32 2317.34 5623.83C1969.99 5884.35 1490.1 6045.5 960 6045.5C429.904 6045.5 -49.9883 5884.35 -397.345 5623.83C-744.702 5363.32 -959.5 5003.45 -959.5 4606Z" fill="url(#paint1_linear_5886_1081)" stroke="url(#paint2_linear_5886_1081)"/>
</g>
<g filter="url(#filter0_f_5886_1081)">
<rect x="-640" y="1837" width="640" height="320" rx="160" fill="url(#paint3_linear_5886_1081)"/>
</g>
<g filter="url(#filter1_f_5886_1081)">
<rect x="1920" y="1517" width="640" height="320" rx="160" fill="url(#paint4_linear_5886_1081)"/>
</g>
<rect width="1920" height="508" fill="url(#paint5_radial_5886_1081)"/>
<rect width="1920" height="508" fill="url(#paint6_radial_5886_1081)"/>
</g>
<defs>
<filter id="filter0_f_5886_1081" x="-1440" y="1037" width="2240" height="1920" filterUnits="userSpaceOnUse" color-interpolation-filters="sRGB">
<feFlood flood-opacity="0" result="BackgroundImageFix"/>
<feBlend mode="normal" in="SourceGraphic" in2="BackgroundImageFix" result="shape"/>
<feGaussianBlur stdDeviation="400" result="effect1_foregroundBlur_5886_1081"/>
</filter>
<filter id="filter1_f_5886_1081" x="1120" y="717" width="2240" height="1920" filterUnits="userSpaceOnUse" color-interpolation-filters="sRGB">
<feFlood flood-opacity="0" result="BackgroundImageFix"/>
<feBlend mode="normal" in="SourceGraphic" in2="BackgroundImageFix" result="shape"/>
<feGaussianBlur stdDeviation="400" result="effect1_foregroundBlur_5886_1081"/>
</filter>
<radialGradient id="paint0_radial_5886_1081" cx="0" cy="0" r="1" gradientUnits="userSpaceOnUse" gradientTransform="translate(960 4567.5) scale(1174 721.962)">
<stop stop-color="#9A8DEC" stop-opacity="0.24"/>
<stop offset="1" stop-color="white" stop-opacity="0"/>
</radialGradient>
<linearGradient id="paint1_linear_5886_1081" x1="960" y1="3131" x2="960" y2="6046" gradientUnits="userSpaceOnUse">
<stop stop-color="#EEEBFF" stop-opacity="0.16"/>
<stop offset="0.05" stop-color="#030012" stop-opacity="0"/>
</linearGradient>
<linearGradient id="paint2_linear_5886_1081" x1="960" y1="6046" x2="960" y2="3131.5" gradientUnits="userSpaceOnUse">
<stop offset="0.95" stop-color="#030012" stop-opacity="0"/>
<stop offset="1" stop-color="#9A8DEC" stop-opacity="0.32"/>
</linearGradient>
<linearGradient id="paint3_linear_5886_1081" x1="-320" y1="1621.62" x2="-320" y2="2157" gradientUnits="userSpaceOnUse">
<stop stop-color="#9A8DEC"/>
<stop offset="1" stop-color="#7361E5"/>
</linearGradient>
<linearGradient id="paint4_linear_5886_1081" x1="2240" y1="1301.62" x2="2240" y2="1837" gradientUnits="userSpaceOnUse">
<stop stop-color="#9A8DEC"/>
<stop offset="1" stop-color="#7361E5"/>
</linearGradient>
<radialGradient id="paint5_radial_5886_1081" cx="0" cy="0" r="1" gradientUnits="userSpaceOnUse" gradientTransform="translate(960 650.875) rotate(-90) scale(396.875 960)">
<stop stop-color="#9A8DEC" stop-opacity="0.12"/>
<stop offset="1" stop-color="white" stop-opacity="0"/>
</radialGradient>
<radialGradient id="paint6_radial_5886_1081" cx="0" cy="0" r="1" gradientUnits="userSpaceOnUse" gradientTransform="translate(960 -138.162) rotate(-90) scale(390.922 960)">
<stop stop-color="#9A8DEC" stop-opacity="0.08"/>
<stop offset="1" stop-color="white" stop-opacity="0"/>
</radialGradient>
<clipPath id="clip0_5886_1081">
<rect width="1920" height="4188" fill="white"/>
</clipPath>
</defs>
</svg>
