<svg width="1920" height="4834" viewBox="0 0 1920 4834" fill="none" xmlns="http://www.w3.org/2000/svg">
<g clip-path="url(#clip0_6019_3830)">
<rect width="1920" height="4834" fill="#030012"/>
<mask id="path-1-inside-1_6019_3830" fill="white">
<path d="M0 4376H1920V4834H0V4376Z"/>
</mask>
<path d="M0 4376H1920V4834H0V4376Z" fill="url(#paint0_radial_6019_3830)"/>
<path d="M0 4377H1920V4375H0V4377Z" fill="#EEEBFF" fill-opacity="0.08" mask="url(#path-1-inside-1_6019_3830)"/>
<mask id="mask0_6019_3830" style="mask-type:alpha" maskUnits="userSpaceOnUse" x="0" y="3812" width="1920" height="600">
<rect y="3812" width="1920" height="600" fill="#D9D9D9"/>
</mask>
<g mask="url(#mask0_6019_3830)">
<path d="M-959.5 5252C-959.5 4854.55 -744.702 4494.68 -397.345 4234.17C-49.988 3973.65 429.904 3812.5 960 3812.5C1490.1 3812.5 1969.99 3973.65 2317.35 4234.17C2664.7 4494.68 2879.5 4854.55 2879.5 5252C2879.5 5649.45 2664.7 6009.32 2317.34 6269.83C1969.99 6530.35 1490.1 6691.5 960 6691.5C429.904 6691.5 -49.9883 6530.35 -397.345 6269.83C-744.702 6009.32 -959.5 5649.45 -959.5 5252Z" fill="url(#paint1_linear_6019_3830)" stroke="url(#paint2_linear_6019_3830)"/>
</g>
<g filter="url(#filter0_f_6019_3830)">
<rect x="-640" y="1866" width="640" height="320" rx="160" fill="url(#paint3_linear_6019_3830)"/>
</g>
<g filter="url(#filter1_f_6019_3830)">
<rect x="1920" y="1546" width="640" height="320" rx="160" fill="url(#paint4_linear_6019_3830)"/>
</g>
<g filter="url(#filter2_f_6019_3830)">
<rect x="-640" y="2454" width="640" height="320" rx="160" fill="url(#paint5_linear_6019_3830)"/>
</g>
<g filter="url(#filter3_f_6019_3830)">
<rect x="1920" y="2134" width="640" height="320" rx="160" fill="url(#paint6_linear_6019_3830)"/>
</g>
<rect width="1920" height="508" fill="url(#paint7_radial_6019_3830)"/>
<rect width="1920" height="508" fill="url(#paint8_radial_6019_3830)"/>
</g>
<defs>
<filter id="filter0_f_6019_3830" x="-1440" y="1066" width="2240" height="1920" filterUnits="userSpaceOnUse" color-interpolation-filters="sRGB">
<feFlood flood-opacity="0" result="BackgroundImageFix"/>
<feBlend mode="normal" in="SourceGraphic" in2="BackgroundImageFix" result="shape"/>
<feGaussianBlur stdDeviation="400" result="effect1_foregroundBlur_6019_3830"/>
</filter>
<filter id="filter1_f_6019_3830" x="1120" y="746" width="2240" height="1920" filterUnits="userSpaceOnUse" color-interpolation-filters="sRGB">
<feFlood flood-opacity="0" result="BackgroundImageFix"/>
<feBlend mode="normal" in="SourceGraphic" in2="BackgroundImageFix" result="shape"/>
<feGaussianBlur stdDeviation="400" result="effect1_foregroundBlur_6019_3830"/>
</filter>
<filter id="filter2_f_6019_3830" x="-1440" y="1654" width="2240" height="1920" filterUnits="userSpaceOnUse" color-interpolation-filters="sRGB">
<feFlood flood-opacity="0" result="BackgroundImageFix"/>
<feBlend mode="normal" in="SourceGraphic" in2="BackgroundImageFix" result="shape"/>
<feGaussianBlur stdDeviation="400" result="effect1_foregroundBlur_6019_3830"/>
</filter>
<filter id="filter3_f_6019_3830" x="1120" y="1334" width="2240" height="1920" filterUnits="userSpaceOnUse" color-interpolation-filters="sRGB">
<feFlood flood-opacity="0" result="BackgroundImageFix"/>
<feBlend mode="normal" in="SourceGraphic" in2="BackgroundImageFix" result="shape"/>
<feGaussianBlur stdDeviation="400" result="effect1_foregroundBlur_6019_3830"/>
</filter>
<radialGradient id="paint0_radial_6019_3830" cx="0" cy="0" r="1" gradientUnits="userSpaceOnUse" gradientTransform="translate(960 5177.5) scale(1174 721.962)">
<stop stop-color="#9A8DEC" stop-opacity="0.24"/>
<stop offset="1" stop-color="white" stop-opacity="0"/>
</radialGradient>
<linearGradient id="paint1_linear_6019_3830" x1="960" y1="3777" x2="960" y2="6692" gradientUnits="userSpaceOnUse">
<stop stop-color="#EEEBFF" stop-opacity="0.16"/>
<stop offset="0.05" stop-color="#030012" stop-opacity="0"/>
</linearGradient>
<linearGradient id="paint2_linear_6019_3830" x1="960" y1="6692" x2="960" y2="3777.5" gradientUnits="userSpaceOnUse">
<stop offset="0.95" stop-color="#030012" stop-opacity="0"/>
<stop offset="1" stop-color="#9A8DEC" stop-opacity="0.32"/>
</linearGradient>
<linearGradient id="paint3_linear_6019_3830" x1="-320" y1="1650.62" x2="-320" y2="2186" gradientUnits="userSpaceOnUse">
<stop stop-color="#9A8DEC"/>
<stop offset="1" stop-color="#7361E5"/>
</linearGradient>
<linearGradient id="paint4_linear_6019_3830" x1="2240" y1="1330.62" x2="2240" y2="1866" gradientUnits="userSpaceOnUse">
<stop stop-color="#9A8DEC"/>
<stop offset="1" stop-color="#7361E5"/>
</linearGradient>
<linearGradient id="paint5_linear_6019_3830" x1="-320" y1="2238.62" x2="-320" y2="2774" gradientUnits="userSpaceOnUse">
<stop stop-color="#9A8DEC"/>
<stop offset="1" stop-color="#7361E5"/>
</linearGradient>
<linearGradient id="paint6_linear_6019_3830" x1="2240" y1="1918.62" x2="2240" y2="2454" gradientUnits="userSpaceOnUse">
<stop stop-color="#9A8DEC"/>
<stop offset="1" stop-color="#7361E5"/>
</linearGradient>
<radialGradient id="paint7_radial_6019_3830" cx="0" cy="0" r="1" gradientUnits="userSpaceOnUse" gradientTransform="translate(960 650.875) rotate(-90) scale(396.875 960)">
<stop stop-color="#9A8DEC" stop-opacity="0.12"/>
<stop offset="1" stop-color="white" stop-opacity="0"/>
</radialGradient>
<radialGradient id="paint8_radial_6019_3830" cx="0" cy="0" r="1" gradientUnits="userSpaceOnUse" gradientTransform="translate(960 -138.162) rotate(-90) scale(390.922 960)">
<stop stop-color="#9A8DEC" stop-opacity="0.08"/>
<stop offset="1" stop-color="white" stop-opacity="0"/>
</radialGradient>
<clipPath id="clip0_6019_3830">
<rect width="1920" height="4834" fill="white"/>
</clipPath>
</defs>
</svg>
